<svg xmlns="http://www.w3.org/2000/svg" viewBox="0 0 44 44"><defs><linearGradient id="a" x1="50%" x2="50%" y1="0%" y2="100%"><stop offset="0%" stop-color="#FFFFFF"/><stop offset="100%" stop-color="#000000"/></linearGradient></defs><g fill="none" fill-rule="evenodd"><rect width="44" height="44" fill="#FFFFFF" rx="8"/><path fill="#FFC24B" d="M8 2a6 6 0 0 0-6 6v14h6.88c.69 0 1.31.39 1.62 1 .3.6.18 1.32-.3 1.8l-.61.61A2 2 0 0 0 9 26.83V27a3 3 0 0 0 6 0v-.17a2 2 0 0 0-.59-1.42l-.62-.62A1.55 1.55 0 0 1 13.5 23c.3-.61.93-1 1.62-1H22v-6.88a1.8 1.8 0 0 0-1-1.62c-.6-.3-1.32-.18-1.8.3l-.61.61a2 2 0 0 1-1.42.59H17a3 3 0 0 1 0-6h.17a2 2 0 0 1 1.42.59l.62.62c.47.47 1.2.59 1.79.29.61-.3 1-.93 1-1.62V2H8z"/><path fill="#9471C9" d="M42 8a6 6 0 0 0-6-6H22v6.88a1.8 1.8 0 0 1-1 1.62c-.6.3-1.32.18-1.8-.3l-.61-.61A2 2 0 0 0 17.17 9H17a3 3 0 0 0 0 6h.17a2 2 0 0 0 1.42-.59l.62-.62c.47-.47 1.2-.59 1.79-.29.61.3 1 .93 1 1.62V22h6.88a1.8 1.8 0 0 0 1.62-1c.3-.6.18-1.32-.3-1.8l-.61-.61a2 2 0 0 1-.59-1.42V17a3 3 0 0 1 6 0v.17a2 2 0 0 1-.59 1.42l-.62.62c-.47.47-.59 1.2-.29 1.79.3.61.93 1 1.62 1H42V8z"/><path fill="#80B644" d="M36 42a6 6 0 0 0 6-6V22h-6.88a1.8 1.8 0 0 1-1.62-1c-.3-.6-.18-1.32.3-1.8l.61-.61a2 2 0 0 0 .59-1.42V17a3 3 0 0 0-6 0v.17a2 2 0 0 0 .59 1.42l.62.62c.47.47.59 1.2.29 1.79-.3.61-.93 1-1.62 1H22v6.88c0 .69.39 1.31 1 1.62.6.3 1.32.18 1.8-.3l.61-.61a2 2 0 0 1 1.42-.59H27a3 3 0 0 1 0 6h-.17a2 2 0 0 1-1.42-.59l-.62-.62A1.55 1.55 0 0 0 23 33.5c-.61.3-1 .93-1 1.62V42h14z"/><path fill="#2293CA" d="M2 36a6 6 0 0 0 6 6h14v-6.88c0-.69.39-1.31 1-1.62.6-.3 1.32-.18 1.8.3l.61.61a2 2 0 0 0 1.42.59H27a3 3 0 0 0 0-6h-.17a2 2 0 0 0-1.42.59l-.62.62c-.47.47-1.2.59-1.79.29-.61-.3-1-.93-1-1.62V22h-6.88a1.8 1.8 0 0 0-1.62 1c-.3.6-.18 1.32.3 1.8l.61.61a2 2 0 0 1 .59 1.42V27a3 3 0 0 1-6 0v-.17a2 2 0 0 1 .59-1.42l.62-.62c.47-.47.59-1.2.29-1.79-.3-.61-.93-1-1.62-1H2v14z"/><path fill="url(#a)" fill-opacity=".3" d="M8 2h28a6 6 0 0 1 6 6v28a6 6 0 0 1-6 6H8a6 6 0 0 1-6-6V8a6 6 0 0 1 6-6z" style="mix-blend-mode:screen"/></g></svg>