<svg xmlns="http://www.w3.org/2000/svg" xmlns:xlink="http://www.w3.org/1999/xlink" viewBox="0 0 380 39"><defs><linearGradient id="b" x1="50%" x2="50%" y1="0%" y2="100%"><stop offset="0%" stop-color="#FFFFFF" stop-opacity=".5"/><stop offset="100%" stop-color="#000000" stop-opacity=".5"/></linearGradient><path id="a" d="M10 0h360a10 10 0 0 1 10 10v29H0V10A10 10 0 0 1 10 0z"/><polygon id="c" points="242 19 250 3 310 3 318 19 318 29 242 29"/><polygon id="d" points="174 19 182 3 242 3 250 19 250 29 174 29"/><polygon id="e" points="106 19 114 3 174 3 182 19 182 29 106 29"/><polygon id="f" points="0 19 38 19 46 3 106 3 114 19 380 19 380 39 0 39"/></defs><g fill="none" fill-rule="evenodd"><use fill="#EAEFF5" xlink:href="#a"/><use fill="url(#b)" style="mix-blend-mode:screen" xlink:href="#a"/><path stroke="#C4D0DC" stroke-linejoin="square" d="M.5 38.5h379V10A9.5 9.5 0 0 0 370 .5H10A9.5 9.5 0 0 0 .5 10v28.5z"/><use fill="#DCE5EE" xlink:href="#c"/><use fill="url(#b)" style="mix-blend-mode:screen" xlink:href="#c"/><path stroke="#C4D0DC" stroke-linejoin="square" d="M242.5 19.12v9.38h75v-9.38L309.7 3.5h-59.4l-7.8 15.62z"/><use fill="#DCE5EE" xlink:href="#d"/><use fill="url(#b)" style="mix-blend-mode:screen" xlink:href="#d"/><path stroke="#C4D0DC" stroke-linejoin="square" d="M174.5 19.12v9.38h75v-9.38L241.7 3.5h-59.4l-7.8 15.62z"/><use fill="#DCE5EE" xlink:href="#e"/><use fill="url(#b)" style="mix-blend-mode:screen" xlink:href="#e"/><path stroke="#C4D0DC" stroke-linejoin="square" d="M106.5 19.12v9.38h75v-9.38L173.7 3.5h-59.4l-7.8 15.62z"/><use fill="#EAEFF5" xlink:href="#f"/><use fill="url(#b)" style="mix-blend-mode:screen" xlink:href="#f"/><path stroke="#C4D0DC" stroke-linejoin="square" d="M.5 19.5v19h379v-19H113.7l-8-16H46.3l-8 16H.5z"/><rect width="294" height="11" x="70.5" y="23.5" fill="#FFFFFF" stroke="#C4D0DC" rx="2"/><path fill="#8CA0B2" fill-rule="nonzero" d="M10.2 28H16a.5.5 0 1 1 0 1h-5.8l2.15 2.15a.5.5 0 0 1-.7.7l-3-3a.5.5 0 0 1 0-.7l3-3a.5.5 0 0 1 .7.7L10.21 28z"/><path fill="#D4DDE5" fill-rule="nonzero" d="M28.8 28H23a.5.5 0 1 0 0 1h5.8l-2.15 2.15a.5.5 0 0 0 .7.7l3-3a.5.5 0 0 0 0-.7l-3-3a.5.5 0 0 0-.7.7L28.79 28z"/><path fill="#8CA0B2" fill-rule="nonzero" d="M43.43 26.36a3 3 0 1 0 .7 4.76.5.5 0 0 1 .7.7 4 4 0 1 1-.67-6.19l.99-.98A.5.5 0 0 1 46 25v2.5a.5.5 0 0 1-.5.5H43a.5.5 0 0 1-.35-.85l.78-.79zM55 29h-.5a.5.5 0 0 1-.35-.85l4-4c.2-.2.5-.2.7 0l4 4a.5.5 0 0 1-.35.85H62v3.5a.5.5 0 0 1-.5.5h-6a.5.5 0 0 1-.5-.5V29zm.68-.97a.5.5 0 0 1 .32.47V32h5v-3.5c0-.21.13-.4.32-.47l-2.82-2.82-2.82 2.82z"/><circle cx="10" cy="10" r="2.5" fill="#FF5F57" stroke="#DF4741"/><circle cx="20" cy="10" r="2.5" fill="#FFBD2E" stroke="#DFA117"/><circle cx="30" cy="10" r="2.5" fill="#27CA41" stroke="#10AC2C"/><path fill="#8CA0B2" d="M372 25a1 1 0 1 1 0 2 1 1 0 0 1 0-2zm0 3a1 1 0 1 1 0 2 1 1 0 0 1 0-2zm0 3a1 1 0 1 1 0 2 1 1 0 0 1 0-2z"/></g></svg>