<?xml version="1.0" encoding="UTF-8"?>
<svg width="128px" height="49px" viewBox="0 0 128 49" version="1.1" xmlns="http://www.w3.org/2000/svg" xmlns:xlink="http://www.w3.org/1999/xlink">
    <!-- Generator: Sketch 51.1 (57501) - http://www.bohemiancoding.com/sketch -->
    <title>Shape</title>
    <desc>Created with Sketch.</desc>
    <defs></defs>
    <g id="Page-1" stroke="none" stroke-width="1" fill="none" fill-rule="evenodd">
        <g id="Desktop-HD-Copy-4" transform="translate(-843.000000, -2256.000000)" fill="#0F2F53" fill-rule="nonzero">
            <path d="M930.474327,2259.27374 L930.445732,2259 L930,2259.03793 L930.028344,2259.31142 L930.474327,2259.27374 Z M934,2266.79485 L934.009532,2267 L934.322572,2266.96168 C934.313041,2266.8335 934.350917,2266.62835 934.417387,2266.37199 L934.388792,2266 C934.256101,2266.01289 934.123159,2266.28213 934,2266.79485 Z M922.330641,2275.60202 C922.311738,2275.34497 921.511027,2274.34549 919.929012,2272.58418 C919.900532,2272.26067 920.443664,2271.77502 921.558662,2271.13731 L924.741848,2268.36695 C925.456615,2267.46238 925.875999,2265.99638 926,2263.95914 L925.961691,2263.49263 C925.837942,2262.08378 924.818214,2260.95086 922.883603,2260.08456 C921.739874,2259.31342 919.681262,2258.88492 916.707768,2258.80889 C914.248927,2259.01836 911.037262,2259.89398 907.082096,2261.44582 C905.995579,2262.22653 904.756833,2263.00724 903.365355,2263.78769 L903.384257,2264.02586 C903.470201,2264.01629 903.603527,2263.96871 903.756007,2263.86398 C903.918065,2263.84484 904.013333,2263.92113 904.022911,2264.07344 L904.261083,2263.94957 L904.375506,2263.94001 L904.385083,2264.04474 C904.394661,2264.16861 903.536738,2264.84458 901.802242,2266.05353 L901.935819,2266.30101 L901.821396,2266.31058 L901.535338,2266.20585 C901.544915,2266.29144 901.421167,2266.34859 901.182743,2266.36773 L901.19232,2266.47246 L901.468801,2266.8151 C901.383109,2266.82467 901.249532,2266.78665 901.068571,2266.71994 C900.66809,2266.75795 900.277438,2266.96742 899.886785,2267.36721 L900.048843,2266.66279 C900.630033,2264.15904 901.030262,2261.94078 901.239954,2260.01784 L901.211475,2259.89398 C900.811245,2259.63693 900.420341,2259.27515 900.058168,2258.81821 C900.067745,2258.52315 900.067745,2258.35195 900.058168,2258.31368 L900.029688,2258.20895 L899.915265,2258.23765 C898.657365,2260.12258 896.236581,2263.34032 892.643588,2267.89087 C889.908518,2271.12775 888.497885,2272.92707 888.412194,2273.28885 C887.297196,2274.44065 886.763389,2275.13576 886.820601,2275.37367 C886.525217,2275.564 886.401216,2275.75433 886.448851,2275.9638 C886.363159,2275.98293 886.305948,2275.95448 886.286793,2275.86863 C885.810449,2276.63977 885.105007,2277.13473 884.161645,2277.35376 L883.170396,2277.58236 C883.03707,2277.61081 882.970281,2277.70598 882.979859,2277.86786 L883.008338,2277.99172 L883.380088,2277.90587 L883.40882,2278.01061 L882.570052,2278.33437 L881.083305,2278.67701 L880.301748,2278.7246 C880.187325,2278.83889 880.921247,2278.71528 880.635441,2278.78175 L879.663347,2279.01034 C879.072328,2279.14352 878.748464,2279.09594 878.691253,2278.85803 L878.576829,2278.88648 C878.595984,2278.99121 878.605309,2279.06749 878.586407,2279.13396 L878.529195,2278.89604 L877.747638,2279.07681 C877.690427,2278.71528 876.632641,2277.40135 874.583607,2275.13576 C874.54555,2274.6977 875.269643,2274.05974 876.747064,2273.2317 L880.921247,2269.56633 C881.855284,2268.36695 882.407994,2266.44376 882.589206,2263.79726 L882.531995,2263.17843 C882.369937,2261.31264 881.016516,2259.80838 878.471983,2258.64701 C876.966082,2257.62839 874.259491,2257.0856 870.352213,2257 C867.111815,2257.27618 862.880169,2258.42798 857.67668,2260.43677 C856.247145,2261.47427 854.617495,2262.50246 852.78773,2263.52108 L852.81621,2263.84484 C852.94021,2263.83528 853.102016,2263.76881 853.302131,2263.65451 C853.511823,2263.63538 853.626246,2263.73054 853.645401,2263.92113 L853.969264,2263.74011 L854.131322,2263.73054 L854.140899,2263.88286 C854.150476,2264.03517 853.016324,2264.92061 850.719541,2266.53892 L850.900501,2266.82467 L850.738696,2266.83424 L850.385848,2266.71037 C850.395426,2266.80554 850.233368,2266.87225 849.899927,2266.9007 L849.91883,2267.07215 L850.300157,2267.49108 C850.176408,2267.50065 850.004773,2267.46238 849.785504,2267.38635 C849.042257,2267.45306 848.317912,2267.98604 847.603144,2268.99534 L847.784104,2269.28084 C848.403603,2268.7096 848.765776,2268.4241 848.870622,2268.41453 L848.908679,2268.88104 C848.803833,2268.89061 848.641775,2268.95707 848.422758,2269.07137 L848.81341,2269.66175 C849.551394,2268.86486 850.387201,2268.16429 851.300983,2267.57668 C851.748847,2267.69098 851.987019,2267.83372 851.996596,2267.98604 L852.339614,2267.95759 C854.798455,2266.13913 857.228816,2264.82545 859.640023,2264.01629 L859.668503,2264.3398 C859.220639,2265.00621 858.915678,2265.34911 858.75362,2265.36799 C858.772775,2265.59659 858.848889,2265.79648 858.991792,2265.96793 C859.030101,2266.37729 857.934007,2269.13809 855.713337,2274.24076 C850.671907,2286.10267 846.44026,2294.88002 843,2300.55418 C843.009325,2300.66822 843.076114,2300.82054 843.200115,2301.01112 C844.048208,2300.81122 844.582016,2300.60176 844.81061,2300.40161 L844.991823,2300.38273 L845.020302,2300.70649 L845.33484,2300.67779 L845.658956,2300.49703 C845.668533,2300.59219 845.773379,2300.63977 845.992396,2300.62064 L846.021128,2300.9444 C846.049608,2301.2586 845.868648,2301.73442 845.487321,2302.39152 C845.144303,2302.78175 844.772553,2303.60047 844.381901,2304.84769 L844.391226,2305 L844.705764,2304.9713 C846.07834,2303.43859 847.116971,2301.93432 847.831739,2300.46833 C851.834538,2299.29739 854.884399,2298.14559 856.99997,2297.01267 C859.12537,2296.83166 860.745443,2296.26998 861.851115,2295.34653 L861.83196,2295.17533 L861.031501,2295.41324 L860.850289,2295.43238 L860.831134,2295.26093 C862.394248,2295.02302 863.471188,2294.68012 864.071532,2294.20429 C867.111815,2291.86217 869.408598,2290.20585 870.962134,2289.22524 C874.154645,2286.88337 876.232412,2284.5984 877.175774,2282.3804 C877.354267,2282.34154 877.532219,2282.30025 877.709581,2282.25653 C878.157445,2282.23765 878.405194,2282.22808 878.471983,2282.20895 C878.452829,2282.12335 878.491138,2282.07577 878.576829,2282.05664 C879.291597,2281.9806 878.948579,2282.10422 879.40602,2281.99949 L880.606709,2281.72356 C880.530595,2281.74244 880.501863,2281.78071 880.521017,2281.85674 L880.701978,2281.74244 C880.663921,2281.74244 880.635441,2281.73312 880.606709,2281.72356 L880.806824,2281.67597 L880.711555,2281.73312 C880.845133,2281.75201 880.988036,2281.74244 881.150094,2281.70442 L881.235785,2282.05664 L875.77497,2290.72951 L874.564452,2292.24308 L873.973685,2294.22317 L874.088109,2294.19473 L874.678876,2293.94725 L874.488338,2294.71839 L874.54555,2294.94673 L874.707355,2295.14663 C874.631241,2295.16576 874.602761,2295.21335 874.621664,2295.29894 L874.650396,2295.42281 L874.898145,2295.36566 C875.260317,2295.05146 875.412798,2294.76597 875.355586,2294.50892 C875.746238,2294.57539 876.003565,2294.60409 876.137143,2294.56607 L876.165623,2294.68969 C875.927451,2294.74683 875.80345,2294.93716 875.784296,2295.26093 L875.813027,2295.38479 L875.946353,2295.35609 C877.928851,2293.19499 882.789321,2285.79804 886.687275,2280.78097 C886.563274,2280.23843 888.593154,2279.48617 892.786491,2278.51513 L892.920069,2278.48668 C893.072549,2279.14352 892.748434,2280.73339 891.947975,2283.25627 C891.433322,2284.77942 891.185573,2285.61727 891.22363,2285.75045 C890.556497,2287.77813 890.241958,2288.87303 890.280016,2289.04448 L888.793269,2293.90898 C887.830752,2296.40341 887.097082,2299.02146 886.582429,2301.78226 C886.66812,2301.76313 886.801446,2301.77269 886.992236,2301.82028 L887.201676,2301.63926 C887.22083,2301.72511 887.278042,2301.75356 887.363733,2301.73442 L887.278042,2301.38221 L887.926021,2301.36333 C888.116558,2301.31575 888.278616,2301.07758 888.412194,2300.63977 C888.383462,2299.98293 888.51704,2299.63072 888.812423,2299.55444 C889.212653,2297.99328 889.460402,2297.21257 889.546345,2297.18387 C889.917843,2295.63227 890.194324,2294.74683 890.375284,2294.5278 C890.937824,2292.5097 891.347378,2291.47194 891.614282,2291.40523 L891.671494,2291.65296 L891.261687,2292.7096 C890.546919,2295.87975 889.822574,2298.3835 889.088904,2300.22085 L889.298596,2301.13473 L889.431922,2301.10628 C891.204475,2297.29817 893.758585,2289.75847 897.084674,2278.48668 C897.180195,2277.49651 897.656539,2276.72537 898.504884,2276.18283 L898.314095,2275.98293 L898.285615,2275.8782 C898.666942,2275.7926 898.933594,2275.64029 899.086074,2275.43082 C899.067172,2275.34497 898.733479,2275.22136 898.0855,2275.04991 L899.743882,2267.94802 C900.105803,2267.62426 900.315495,2267.45306 900.382284,2267.45306 L900.411015,2267.81484 C900.325072,2267.82416 900.191746,2267.87174 900.039266,2267.97647 L900.353804,2268.4241 C900.925416,2267.80527 901.544915,2267.27205 902.221626,2266.82467 C902.564644,2266.91984 902.736279,2267.03413 902.755433,2267.14843 L903.003182,2267.1293 C904.890159,2265.7489 906.739078,2264.75873 908.559266,2264.15904 L908.57842,2264.39695 C908.24498,2264.90148 908.016133,2265.15852 907.892133,2265.16809 C907.911287,2265.33954 907.958922,2265.49185 908.044613,2265.62504 C908.073345,2265.93923 907.253731,2268.03362 905.576447,2271.91777 C901.74503,2280.91415 898.533364,2287.56866 895.922043,2291.89087 C895.93162,2291.97647 895.988832,2292.09077 896.093678,2292.24308 C896.732079,2292.09077 897.141886,2291.92889 897.303944,2291.77657 L897.418367,2291.76701 L897.437521,2292.00517 L897.704173,2291.98604 L897.942597,2291.86217 C897.951922,2291.92889 898.037866,2291.95759 898.199923,2291.94802 L898.218826,2292.20507 C898.237981,2292.43341 898.104655,2292.79519 897.809019,2293.29015 C897.53279,2293.58547 897.246732,2294.20429 896.941771,2295.14663 L896.951348,2295.27049 L897.199098,2295.25136 C898.237981,2294.08999 899.028862,2292.94751 899.572247,2291.82416 C902.612278,2290.9294 904.928216,2290.0631 906.529386,2289.20611 C908.159036,2289.06336 909.388457,2288.64443 910.227225,2287.94001 L910.217648,2287.81639 L909.598149,2287.99716 L909.464823,2288.00672 L909.455246,2287.88286 C910.637032,2287.71166 911.466223,2287.44505 911.914087,2287.09284 C914.220448,2285.32196 915.964521,2284.05586 917.146307,2283.31342 C920.824991,2280.63822 922.540333,2278.06775 922.330641,2275.60202 Z M921.407856,2276.37208 L921.493139,2277.54643 C921.379261,2277.83733 921.256101,2277.98831 921.142223,2278 L921,2276 C921.265382,2276.11624 921.398324,2276.23247 921.407856,2276.37208 Z M849.285606,2268.33986 L849.04269,2268.34909 L849,2268.05664 L849.985644,2268 L850,2268.15097 C849.842841,2268.16045 849.599924,2268.21709 849.285606,2268.33986 Z M846.09467,2301 C845.700946,2300.78843 845.346777,2300.70597 845.04179,2300.74113 L845.002236,2300.16459 C844.982719,2299.94119 845.090973,2299.78811 845.326999,2299.72931 C845.543508,2299.70597 845.67154,2299.89421 845.691057,2300.27069 C846.261996,2299.43528 846.576871,2299.01182 846.635942,2299 L847,2299.17642 C846.881857,2300.35314 846.576871,2300.95302 846.09467,2301 Z M880,2264.99941 C879.834917,2265.02089 879.50475,2264.4546 879.029012,2263.33248 L879,2263.0013 C879.310655,2262.96937 879.631065,2263.52492 879.970732,2264.66823 L880,2264.99941 Z M880,2260.67643 L879.860936,2261 L875,2259 C878.240536,2259.10786 879.91062,2259.66658 880,2260.67643 Z M861,2278.29245 L860.041866,2278.34909 L860,2278.05639 L860.958134,2278 L861,2278.29245 Z M859.681891,2268.00837 L859.939503,2268 L860,2268.40833 C859.757612,2268.4167 859.439503,2268.61657 859.045673,2269 L859,2268.71662 C859.469952,2268.40833 859.71234,2268.17497 859.681891,2268.00837 Z M858.161286,2271 L858.218225,2271.98478 L858.056939,2272 L858,2271.01522 L858.161286,2271 Z M858.467577,2272.03506 L859,2272 C858.951792,2272.62792 858.709898,2272.96525 858.274317,2272.98831 L858,2273 C858.338737,2272.58149 858.5,2272.25584 858.467577,2272.03506 Z M857.692433,2274.02831 L857.98454,2274 L858,2274.22533 L857.52319,2274.95791 L857.01546,2275 L857,2274.77467 C857.50773,2274.73259 857.738405,2274.49311 857.692433,2274.02831 Z M856.322321,2275 L856.227506,2275.98789 L856.06622,2276 L856,2275.0239 L856.322321,2275 Z M852,2290 C851.698228,2291.30993 851.368891,2291.97649 851.026133,2292 L851.012351,2291.81287 C850.930016,2291.1695 851.259354,2290.5614 852,2290 Z M850.286839,2292 L850.296371,2292.15097 C850.315183,2292.35858 850.220368,2292.48135 850.011674,2292.49058 L850.002393,2292.33961 C849.98333,2292.16045 850.078145,2292.04716 850.286839,2292 Z M850.359155,2297.04716 L850.976451,2297 L851,2297.16993 C850.845833,2297.17916 850.64394,2297.24529 850.394636,2297.35858 L850.002781,2297.38677 C849.978918,2297.22657 850.109536,2297.10381 850.358841,2297.04716 L850.359155,2297.04716 Z M864.594741,2292.59586 C861.803724,2294.03214 860.159748,2295.00971 859.67242,2295.51828 C856.652145,2296.6156 855.151487,2297.29377 855.180049,2297.56309 C852.494434,2298.67044 850.726098,2299.48842 849.875548,2299.99698 C849.674854,2300.01703 849.387967,2299.93711 849.005788,2299.75747 C848.958016,2299.18903 849.206482,2298.73032 849.731978,2298.36129 C850.20035,2298.32119 850.649511,2298.3911 851.079715,2298.58049 C851.576901,2298.31117 852.446661,2298.01205 853.679643,2297.69287 L853.650828,2297.35365 L852.656961,2297.4436 C852.781068,2297.26397 853.736768,2296.79523 855.533665,2296.03713 L856.030852,2295.98728 L856.040457,2296.14686 C855.189654,2296.22652 854.721283,2296.48608 854.616133,2296.95482 C854.635343,2297.16426 854.750098,2297.25394 854.960397,2297.23416 C855.600648,2296.81501 855.916097,2296.56574 855.906492,2296.49584 C857.120516,2296.25659 860.475197,2294.42122 865.97104,2291 L865.999855,2291.30915 C866.00946,2291.45871 865.541089,2291.87759 864.594741,2292.59586 Z M856,2294.75235 C856.66153,2294.69976 857.228319,2294.44477 857.700781,2294.00206 C857.889641,2293.98698 857.992087,2294.05445 858,2294.21201 C857.677043,2294.24217 857.055075,2294.49716 856.149714,2294.99246 L856.015825,2295 L856,2294.75235 Z M869.517739,2284.54404 L865.355429,2287.79372 C862.259654,2289.79553 860.598574,2290.80087 860.362703,2290.81958 C855.435871,2293.49187 852.368551,2294.8791 851.179212,2294.98153 L851,2295 C851.151007,2294.45092 853.340489,2290.02822 857.587912,2281.70432 C859.456659,2281.54599 862.401426,2280.68962 866.41273,2279.12535 L867.394152,2279.04139 C869.423391,2278.8646 870.942949,2279.2556 871.943591,2280.18683 L872,2280.79181 C871.244963,2282.93347 870.414548,2284.1811 869.517739,2284.54404 Z M861,2280.05664 L861.986407,2280 L862,2280.15097 L861.01396,2280.20761 L861,2280.05664 Z M871,2279.06455 L871.406405,2279 C871.781405,2279.29711 871.976653,2279.5553 871.992355,2279.78787 L872,2279.99448 C871.640702,2280.04605 871.304752,2279.7363 871,2279.06455 Z M871.445953,2270.72731 C871.011133,2271.22974 869.819692,2272.08886 867.871879,2273.29502 C867.229025,2273.34988 864.836891,2274.2455 860.695725,2276 C860.488691,2275.90856 860.260581,2275.87083 860.033868,2275.89052 L860.005364,2275.60705 C859.958106,2275.0314 860.222899,2274.30954 860.808993,2273.43229 C861.130545,2271.78726 861.480351,2270.84597 861.868163,2270.6176 L865.319218,2263.11505 C865.281212,2262.64888 866.018831,2262.29242 867.531574,2262.04568 L868.023153,2262 L868.061159,2262.42968 C869.545398,2262.21025 870.472047,2262.08241 870.831354,2262.05486 C873.573295,2261.82648 875.001025,2262.36564 875.114543,2263.65421 L875.426593,2263.62666 L875.360333,2262.86831 L875.700637,2262.84076 C876.504267,2263.27044 876.939337,2263.79123 876.996096,2264.40338 C877.033852,2264.82388 876.797564,2265.34467 876.296233,2265.96624 C876.08845,2265.98436 875.96543,2265.83815 875.946427,2265.54574 L875.606122,2265.57329 L875.53061,2266.48703 C874.140637,2268.49745 873.128974,2269.5301 872.504874,2269.58495 C871.937532,2270.34355 871.587726,2270.71813 871.445953,2270.72731 Z M873.713416,2277 C873.431922,2276.74975 873.206528,2276.63736 873.037731,2276.64992 L873,2276.03736 L873.309792,2276 L873.995159,2276.53752 C874.023209,2276.82479 873.929377,2276.97488 873.713416,2277 Z M876,2279 C876.581731,2279.19712 876.927404,2279.40905 877,2279.60617 L876.709135,2279.66667 L876.727404,2279.68189 C876.672596,2279.68189 876.6,2279.69712 876.545192,2279.71234 L876.109135,2280 L876,2279 Z M876.028344,2280.21709 L876,2280.09432 L876.398324,2280 L876.426668,2280.12277 L876.028344,2280.21709 Z M877.032881,2281.26425 C877.315762,2281.19813 877.453897,2281.16993 877.980167,2281 L878,2281.12277 L877,2281.4529 C877.013222,2281.38677 877.02627,2281.3209 877.032881,2281.26425 Z M878.598146,2282.69117 C877.938386,2282.77946 878.082606,2282.66161 877.03108,2283 L877,2282.80902 L878.309433,2282.20576 L878.938386,2282 L879,2282.35278 C878.721647,2282.44107 878.928026,2282.44107 878.598146,2282.69117 Z M880.478957,2281.28405 C880.267412,2281.32173 880.098696,2281.25585 880,2281.09541 L880.549348,2281.01032 C880.788454,2280.97264 880.943389,2281.03876 881,2281.19921 L880.478957,2281.28405 Z M884.043312,2278.264 L884,2278.14148 L884.912993,2278 L885,2278.22633 L884.043312,2278.264 Z M887,2300.41703 C887.037876,2300.2471 887.047408,2300.12458 887.028344,2300.03949 L887.161286,2300.01129 C887.322321,2299.97361 887.417137,2300.03025 887.455263,2300.18122 L887.483608,2300.30374 L887,2300.41703 Z M889.528607,2279.54932 L889.315636,2279.49329 C888.973353,2279.69518 888.684364,2279.84073 888.448668,2279.91929 L888.25098,2279.98659 C888.136953,2280.03135 888.045651,2279.96406 888,2279.78471 L889.391654,2279.31394 L889.847964,2279 L890,2279.25791 C889.779387,2279.32521 889.619708,2279.426 889.528607,2279.54932 Z M891.035788,2279 L891,2278.80016 C891.10768,2278.76923 891.251465,2278.66178 891.407284,2278.46154 L892.963895,2278 L893,2278.19984 C892.173713,2278.46154 891.514964,2278.72324 891.035788,2279 Z M891.837848,2275.80529 C891.75416,2275.82308 891.642985,2275.89399 891.503586,2276 C891.485179,2275.92043 891.318048,2275.92043 891.002438,2275.99134 C890.946973,2275.76995 891.837848,2275.46033 893.684635,2275.05312 L893.94429,2275 L894,2275.2125 C892.700746,2275.57524 891.977001,2275.77884 891.837848,2275.80529 Z M894.47768,2272.30455 C894.342679,2273.70829 893.803438,2274.50309 892.849768,2274.706 L892.820985,2274.59135 L891.973279,2274.89139 L891.597567,2274.97101 C891.404999,2275.01514 891.231535,2275.00626 891.07743,2274.96213 L891.000505,2274.65299 C890.971467,2274.53835 892.194884,2272.98424 894.679928,2270 L894.968779,2270.04436 C895.074743,2270.4504 894.910958,2271.20084 894.47768,2272.30455 Z M900.263972,2267.27349 L900.037924,2267.28297 L900,2267.04716 L900.981038,2267 L901,2267.12252 C900.830339,2267.14148 900.58483,2267.18865 900.263972,2267.27349 Z M897.546354,2291 C897.349003,2290.89219 897.171474,2290.84622 897.020374,2290.86147 L897.000552,2290.56916 C896.993945,2290.46928 897.04663,2290.39992 897.158433,2290.36147 C897.270236,2290.34622 897.335962,2290.43836 897.349003,2290.63853 C897.631728,2290.21542 897.789608,2290 897.822471,2290 L898,2290.08462 C897.934274,2290.66924 897.783001,2290.97681 897.546354,2291 Z M924,2263.99987 C923.835286,2264.0068 923.518915,2263.73103 923.025109,2263.17275 L923,2263.00051 C923.316371,2262.98666 923.645464,2263.2555 923.974556,2263.80685 L924,2263.99987 Z M924,2261.83228 L923.874282,2262 L920,2261 C922.586362,2261.0517 923.926618,2261.32912 924,2261.83228 Z M909,2275.22657 L908.036729,2275.27374 L908,2275.03768 L908.962782,2275 L909,2275.22657 Z M908.313041,2267.01092 L908.445732,2267 L908.474076,2267.41305 C908.350917,2267.42397 908.199162,2267.61972 908.018813,2268 L908,2267.72837 C908.218225,2267.41305 908.322321,2267.1739 908.313041,2267.01092 Z M907.132942,2270 L907.170818,2270.46238 L907.038127,2270.47186 L907,2270.00948 L907.132942,2270 Z M907.199162,2270.03 L907.445732,2270 C907.417387,2270.62692 907.313041,2270.95539 907.132691,2270.98539 L907,2271 C907.142223,2270.58231 907.208694,2270.25385 907.199162,2270.03 Z M906.350917,2272.01827 L906.464795,2272 L906.474076,2272.23606 L906.256101,2272.96346 L906.009281,2273 L906,2272.76346 C906.256101,2272.72692 906.369729,2272.4726 906.350917,2272.01827 Z M906.24682,2273 L906.161286,2273.98454 L906.047408,2274 L906,2273.03092 L906.24682,2273 Z M903,2284 C902.692648,2284.65129 902.36761,2284.98462 902.02393,2285 L902.005766,2284.91472 C901.951752,2284.58918 902.27679,2284.27921 903,2284 Z M901.228554,2286 L901.237835,2286.10381 C901.256898,2286.27349 901.181146,2286.36806 901.010328,2286.37729 L901.000797,2286.25477 C900.991265,2286.132 901.067268,2286.04716 901.228554,2286 Z M901.37022,2289.0282 L901.98456,2289 L902,2289.12252 C901.861855,2289.132 901.64651,2289.17916 901.400693,2289.26425 L901.00129,2289.28297 C900.985851,2289.15097 901.108963,2289.06613 901.37022,2289.0282 Z M911.92983,2286.07562 C909.808995,2287.0289 908.546029,2287.67599 908.150874,2288.00832 C905.83705,2288.74282 904.690081,2289.19772 904.709201,2289.38135 C902.655925,2290.12464 901.30628,2290.65794 900.669953,2290.99906 C900.515715,2291.00785 900.293918,2290.95535 900.004818,2290.83301 C899.966322,2290.45697 900.159056,2290.15077 900.563898,2289.92344 C900.930245,2289.8973 901.277217,2289.94101 901.59538,2290.06335 C901.981103,2289.88852 902.646238,2289.6961 903.59104,2289.47755 L903.571665,2289.25878 L902.7811,2289.31127 C902.877722,2289.18893 903.619848,2288.87395 904.998557,2288.36678 L905.384024,2288.34065 L905.393712,2288.43685 C904.738265,2288.48935 904.371918,2288.66419 904.294671,2288.97894 C904.304359,2289.11886 904.400726,2289.18893 904.564651,2289.17136 C905.04674,2288.88274 905.27797,2288.71669 905.27797,2288.66419 C906.203397,2288.51548 908.767826,2287.29116 912.980687,2285 L912.999808,2285.21855 C913.009496,2285.31475 912.652836,2285.59459 911.92983,2286.07562 Z M905,2287.75822 C905.669939,2287.69778 906.237082,2287.44615 906.71152,2287.00306 C906.886571,2286.98283 906.989911,2287.06351 907,2287.22461 C906.690798,2287.25469 906.082481,2287.50659 905.16469,2287.98988 L905.02045,2288 L905,2287.75822 Z M916.115953,2280.14517 L912.963274,2282.60723 C910.605774,2284.10454 909.327877,2284.85792 909.128832,2284.87639 C905.379767,2286.87903 903.05081,2287.91715 902.132447,2287.99077 L902,2288 C902.113418,2287.5865 903.789406,2284.26998 907.027212,2278.04123 C908.437806,2277.92194 910.672123,2277.26962 913.739676,2276.09374 L914.506564,2276.02935 C916.049605,2275.90083 917.20482,2276.1948 917.962194,2276.90203 L918,2277.35222 C917.422393,2278.93237 916.797715,2279.86019 916.115953,2280.14517 Z M909,2277.04716 L909.981038,2277 L910,2277.12277 L909.018962,2277.16993 L909,2277.04716 Z M917,2275.05125 L917.408257,2275 C917.785753,2275.30838 917.979493,2275.5832 917.989746,2275.80587 L918,2275.99453 C917.642742,2276.04578 917.30599,2275.73739 917,2275.05125 Z M917.748709,2269.86684 C917.414716,2270.26405 916.507913,2270.9449 915.028298,2271.8909 C914.531727,2271.93817 912.698934,2272.63804 909.529666,2274 C909.376933,2273.94322 909.205014,2273.92446 909.023502,2273.93397 L909.004568,2273.69734 C908.966448,2273.24335 909.166894,2272.67581 909.605906,2271.98545 C909.854065,2270.68026 910.131004,2269.95188 910.417283,2269.78154 L913.08064,2263.87946 C913.052113,2263.52953 913.615331,2263.24588 914.760953,2263.02826 L915.142658,2263 L915.171438,2263.35944 C916.297874,2263.17959 917.004231,2263.07554 917.29051,2263.04727 C919.390649,2262.86743 920.488558,2263.28365 920.574391,2264.30518 L920.82255,2264.28617 L920.774837,2263.71863 L921.023249,2263.69987 C921.63418,2264.03079 921.958579,2264.42825 921.996952,2264.90099 C922.025479,2265.24167 921.85356,2265.65764 921.490788,2266.14014 C921.328714,2266.1589 921.233288,2266.04559 921.214102,2265.79971 L920.965942,2265.81847 L920.88945,2266.52784 C919.829913,2268.12643 919.056657,2268.94936 918.569679,2268.98713 C918.14026,2269.56418 917.872914,2269.85733 917.748709,2269.86684 Z M919.036725,2273.65568 L919,2273.03252 L919.31667,2273 L919.998977,2273.55724 C920.011218,2273.8196 919.913608,2273.96748 919.706468,2274 C919.414281,2273.75412 919.194899,2273.6392 919.036725,2273.65568 Z M874.455263,2296 L874.208694,2296.05664 L874,2296.23581 C874.037876,2296.38677 874.132691,2296.44342 874.293977,2296.40574 C874.455263,2296.36806 874.521734,2296.27374 874.483858,2296.12277 L874.455263,2296 Z M874.006485,2294.28322 L874.034829,2294.40574 C874.196115,2294.36806 874.262335,2294.27374 874.224459,2294.12277 L874.196115,2294 C874.04436,2294.03793 873.977889,2294.13225 874.006485,2294.28322 Z M880.056688,2278.31117 L880.341385,2278.24529 L880.284446,2278 L880,2278.06588 L880.056688,2278.31117 Z M966.988746,2286 C964.002058,2286.79059 963.628722,2286.65098 963,2286.7091 L963.019745,2287 L963.294876,2286.97663 L963.442184,2286.96494 L963.402953,2286.9302 L963.726927,2286.77891 C966.683997,2286.39514 967.027976,2286.53475 966.998358,2286.1393 L966.988746,2286 Z M951,2288 L951.019063,2288.23606 L951.056939,2288.23606 L951.038127,2288 L951,2288 Z M950,2282.0782 L949.542847,2282 C949.170319,2282.51311 948.984055,2282.81739 949.001069,2282.90432 L949.018084,2283 C949.373597,2282.99126 949.69553,2282.67824 950,2282.0782 Z M967,2286 L967.019063,2286.23581 L967.4362,2286.31117 L967.417387,2286.07536 L967,2286 Z M947.788171,2288.47423 L947.118291,2288.33886 L947,2288.77947 L947.009901,2289 L951,2288.42358 L950.980459,2288 L947.788171,2288.47423 Z M945.379261,2280.12277 L945.36998,2280 L945.237038,2280.00948 L945,2280.16045 L945.132691,2280.38677 C945.313041,2280.36806 945.398324,2280.28297 945.379261,2280.12277 Z M968.620636,2284.18459 L968.800915,2284.16564 C968.905222,2284.15617 968.952611,2284.07138 968.943083,2283.92052 L968.838777,2283.69409 C968.184606,2283.7507 967.881215,2283.77913 967.350156,2284.07138 L967.340628,2283.94894 L966.553817,2284.02425 C966.534761,2283.7886 966.468567,2283.66592 966.364261,2283.67539 L965.956564,2283.71305 C965.482421,2283.7507 965.254753,2283.732 965.017807,2283.91104 C965.008279,2283.82626 964.979946,2283.7886 964.932557,2283.7886 L964.477471,2283.82626 L964.211941,2283.97712 C964.202413,2283.89234 964.17408,2283.85444 964.12644,2283.85444 L963.965467,2283.99607 L963.955939,2283.87339 L963.320574,2283.82626 L963.168878,2283.83573 L963.187934,2284.07138 L963.510381,2284.15617 L963.813772,2284.13746 C963.918078,2284.20354 964.031662,2284.22225 964.164552,2284.21277 L964.430081,2284.08086 L964.439359,2284.18459 C962.950988,2284.5524 962.960266,2284.48632 961.936259,2284.65614 C961.822675,2284.58058 961.737174,2284.54293 961.680257,2284.5524 L961.661452,2284.57111 C961.547618,2284.56163 961.481173,2284.48632 961.471895,2284.36364 L962.002704,2284.2978 C962.040565,2284.2978 962.069149,2284.33546 962.363012,2284.39206 C962.789765,2284.18459 962.80857,2284.09956 963.036239,2284.08086 L963.017183,2283.84496 C961.557146,2284.12799 962.144871,2283.93947 960.314998,2284.09956 L960.229748,2284.10904 L960.210692,2283.87339 C962.562097,2283.59061 961.775286,2283.7507 962.581153,2283.52453 C962.59068,2283.60931 962.619014,2283.64696 962.666403,2283.64696 C962.752808,2283.55917 962.866365,2283.50279 962.98885,2283.48687 L963.150073,2283.4774 C963.974744,2283.41132 964.249802,2283.57166 965.880591,2283.11906 L965.890119,2283.2228 L966.155648,2283.09063 L966.402122,2283.07193 C966.383066,2282.83603 966.743374,2282.79838 966.866736,2282.7889 L966.84768,2282.5343 C963.984272,2283.10959 963.235323,2282.94924 962.438985,2283.17567 L962.429457,2283.07193 C961.680508,2283.20385 961.651924,2283.14724 961.462367,2283.15672 C961.40545,2283.16619 961.3202,2283.21332 961.225171,2283.30758 C961.215894,2283.2228 961.18731,2283.18489 961.130393,2283.18489 C961.102059,2283.18489 961.092532,2283.19437 961.083004,2283.19437 L958.655877,2283.59036 C958.646349,2283.52453 958.618016,2283.48687 958.561099,2283.4961 C957.300146,2283.76018 957.641398,2283.80731 955.953692,2283.95817 C955.877719,2283.96765 955.773664,2284.0053 955.640774,2284.09033 C955.631246,2284.02425 955.593384,2283.9866 955.508134,2283.99582 L954.474599,2284.08086 L953.782567,2284.25043 C953.773039,2284.18459 953.735178,2284.14694 953.649677,2284.15617 C953.261036,2284.2599 952.919784,2284.32598 952.644726,2284.34493 L952.62567,2284.34493 C952.45517,2284.36364 952.711172,2284.2978 952.578281,2284.2412 L952.369669,2284.36364 C952.066278,2284.39206 952.227501,2284.34493 951.184689,2284.35416 C949.354816,2284.58058 949.553901,2284.60876 949.354816,2284.61824 L948.672062,2284.57111 C948.68159,2284.63719 948.643728,2284.68432 948.567755,2284.68432 C947.790222,2284.58058 947.392053,2284.4579 947.382525,2284.31651 C947.486831,2283.58113 947.667111,2283.20385 947.923112,2283.18489 L948.055752,2283.17567 L947.941918,2283.42079 L948.074808,2283.41132 C948.321282,2283.2794 948.435116,2283.15672 948.425588,2283.0435 L948.406532,2282.7889 L948.160058,2282.80786 L948.141002,2282.57221 C948.122197,2282.39291 948.15053,2282.23257 948.216975,2282.10066 L948.776368,2281.20495 L948.795424,2281.44059 L949.060703,2281.42164 L949.041898,2281.18599 L948.890202,2280.96905 C949.089287,2280.79948 949.240982,2280.70497 949.364094,2280.69574 L949.354816,2280.57306 L948.994508,2280.60148 L948.965924,2280.24315 C949.68654,2278.7532 950.027792,2277.88566 950.008987,2277.64054 L950.264989,2277.74427 C950.426212,2277.7348 950.501935,2277.64054 950.492407,2277.47072 L950.245933,2277.48967 L950.236405,2277.38594 C950.219092,2277.21377 950.251995,2277.04028 950.331183,2276.88621 C950.720075,2276.48075 950.900104,2276.07528 950.862243,2275.65087 C950.938216,2275.64139 950.976077,2275.67929 950.985605,2275.76408 C951.317329,2275.57556 951.573331,2275.07583 951.762887,2274.24595 C952.350864,2273.18989 953.185063,2271.07778 954.275515,2267.91884 C956.36139,2262.33658 956.276139,2261.7426 956.570002,2260.42247 L956.323528,2260.44117 C956.342334,2260.61099 956.304472,2260.77133 956.22875,2260.92219 C956.057999,2260.85611 955.925359,2260.81846 955.830581,2260.82793 L955.821053,2260.7242 C955.782941,2260.24317 955.982276,2259.66814 956.437363,2258.98912 L956.550946,2258.97965 L956.759559,2259.79058 L957.006032,2259.77188 C956.996755,2259.71527 957.06295,2259.39459 957.19584,2258.8006 C957.186312,2258.67792 957.091533,2258.60261 956.901726,2258.59313 L956.66478,2258.744 C956.645975,2258.57418 956.655252,2258.13106 956.683836,2257.42387 L956.560474,2257.43334 C956.351862,2257.22587 956.247555,2257.05606 956.238027,2256.91467 L954.882297,2257.04658 C954.872769,2256.95232 954.825379,2256.81093 954.730601,2256.63189 C954.721073,2256.5092 955.024464,2256.38651 955.650302,2256.26408 L955.925359,2256.36781 L956.181361,2256.21695 C956.190638,2256.30173 956.238027,2256.33938 956.332806,2256.33016 L956.588807,2256.17929 C956.598335,2256.26408 956.645724,2256.30173 956.740753,2256.29225 L956.863865,2256.28303 L956.844809,2256.00948 C956.655252,2256.02843 956.152777,2256.02843 955.356439,2256 L955.100437,2256.16982 L955.090909,2256.01895 C948.728979,2256.53738 945.116622,2256.82988 944.253838,2256.91467 C944.140004,2256.92414 943.694446,2256.91467 942.907385,2256.89571 C942.916913,2256.99945 942.822135,2257.05606 942.632578,2257.07501 L942.35752,2256.95232 L941.428292,2257.18822 C941.210151,2257.20692 940.840566,2257.19744 940.328563,2257.14109 C940.186395,2257.25405 940.015644,2257.32013 939.807031,2257.33908 C939.693197,2257.34831 941.162762,2257.26353 942.528021,2257.16927 C942.385854,2257.28248 942.167964,2257.34831 941.864573,2257.37674 C941.65596,2257.39569 941.475681,2257.36726 941.323986,2257.28248 C941.115373,2257.37674 940.442397,2257.5276 939.314084,2257.75378 L939.039026,2257.65029 L934.601747,2258.32906 C934.430996,2258.24427 934.231911,2258.21585 934.004494,2258.2348 C933.767297,2258.25375 933.369128,2258.33853 932.819263,2258.4894 L930.676472,2259.37564 L930.837695,2259.63971 C930.942001,2259.63024 931.093697,2259.57388 931.273725,2259.47015 L932.032453,2259.53598 L931.937424,2260.24317 C931.235864,2260.55438 930.828167,2261.01645 930.714333,2261.60121 C929.661993,2262.06303 929.140461,2262.39319 929.140461,2262.59118 L929.149989,2262.71387 L929.311213,2262.7044 L929.595548,2262.55353 L929.927522,2262.94952 L929.974912,2263.49637 C929.993717,2263.66619 928.220761,2267.37199 924.674849,2274.61376 C921.602829,2281.59146 919.991096,2285.41047 919.839401,2286.09871 C918.787061,2286.39096 918.180029,2286.81538 918,2287.38119 C918.019056,2287.56023 918.331724,2287.68292 918.938506,2287.73005 L918.96709,2288.00335 L918.692032,2288.45595 L918.739421,2289.00305 C918.768005,2289.28583 919.53601,2289.50277 921.043436,2289.65364 C921.033908,2289.55938 921.081548,2289.50277 921.185604,2289.4933 C921.214188,2289.83268 921.119409,2290.49275 920.901269,2291.4735 L921.062492,2291.46402 C921.688079,2290.61544 921.982193,2290.03068 921.953609,2289.71025 L922.086499,2289.70077 C922.238195,2289.69129 922.399418,2289.86111 922.588974,2290.22867 C922.399418,2290.30423 921.735719,2291.80341 920.597878,2294.73617 L920.759101,2295 L920.920325,2294.99077 C922.313917,2291.48297 923.186228,2289.54043 923.546536,2289.17262 C925.376409,2289.01228 928.543208,2288.69184 933.037404,2288.21082 L933.321739,2288.04125 C933.331267,2288.13551 933.388184,2288.18264 933.49249,2288.17317 L933.786353,2288.14499 L934.070939,2287.97517 C934.080216,2288.06943 934.137133,2288.11656 934.241439,2288.10709 L937.645184,2287.81483 C938.546079,2287.73952 938.972581,2287.46597 938.93472,2287.0039 C938.925192,2286.88146 939.456251,2286.73982 940.527647,2286.58896 C940.631954,2286.57948 940.783649,2286.60791 940.992262,2286.67399 C940.982734,2286.58896 941.52307,2286.50418 942.603994,2286.40992 C942.632578,2285.84411 942.812607,2285.54238 943.135053,2285.5142 L943.106469,2285.24065 C942.803079,2285.26883 942.461827,2285.34438 942.063658,2285.4763 C941.35257,2285.43864 940.897483,2285.38204 940.707676,2285.31596 C940.518119,2285.41969 940.375952,2285.4763 940.271646,2285.48577 L937.901185,2285.56133 L937.61685,2285.7122 C937.607322,2285.62716 937.550405,2285.58951 937.446099,2285.59898 L937.31346,2285.60846 L937.010069,2285.75933 C937.000541,2285.67429 936.754067,2285.60846 936.260869,2285.54238 L935.957729,2285.72142 L935.369752,2285.76855 L935.360224,2285.61769 C938.413189,2285.28778 939.920866,2284.87284 939.882754,2284.38259 C940.082089,2284.36364 940.186395,2284.4579 940.205201,2284.65614 L941.096568,2284.42972 L941.067984,2284.15617 L933.75802,2284.35416 C933.767297,2284.44867 933.719908,2284.50503 933.615852,2284.5145 L932.724485,2284.43919 C932.496817,2284.4579 932.30726,2284.52398 932.155565,2284.63719 L931.823841,2284.5145 C930.90414,2284.59006 930.221385,2284.70327 929.766299,2284.84466 C929.140461,2284.79753 928.448429,2284.80676 927.680424,2284.87284 L926.040108,2285.01423 L925.281631,2284.92944 C925.24377,2284.44867 926.182275,2282.08171 928.116455,2277.83853 C928.676098,2276.40519 929.187851,2275.50948 929.681049,2275.17009 C929.785355,2275.16062 929.93705,2275.19827 930.145663,2275.28305 L931.311837,2274.88706 L931.909091,2274.98132 C932.914042,2274.89654 934.080216,2274.61376 935.417142,2274.12326 C935.749116,2274.09508 935.99559,2274.11404 936.175619,2274.18934 L937.066986,2273.98187 L939.721781,2273.7557 C940.849843,2273.66144 942.072935,2273.41607 943.400332,2273.0106 L943.371999,2272.7373 C942.879052,2272.78443 942.62305,2272.69964 942.603994,2272.5014 C942.575661,2272.13384 942.215353,2271.98297 941.52307,2272.03933 L941.494737,2271.76603 L942.224881,2271.55856 L944.140004,2271.39821 L944.11142,2271.12491 C944.035698,2271.13414 943.647057,2271.12491 942.926441,2271.09648 L942.897857,2270.80423 L943.637529,2270.73815 C943.836613,2270.71945 943.921864,2270.62494 943.903058,2270.43642 C942.907385,2270.46485 942.40491,2270.41772 942.395382,2270.28555 C935.455003,2270.62494 931.975536,2270.69102 931.95648,2270.47407 C931.852174,2270.48355 931.710006,2270.54963 931.52045,2270.66284 L931.34017,2270.37981 C933.179571,2266.49497 934.260495,2264.53373 934.573414,2264.5053 C934.582691,2264.65617 934.506969,2264.90129 934.336218,2265.23145 L934.345746,2265.35389 L934.639608,2265.32571 C935.369752,2263.59063 935.986062,2262.69492 936.498065,2262.65727 C938.678718,2262.4685 936.194675,2262.32711 940.859371,2261.60121 C941.049179,2261.68599 941.181818,2261.72365 941.276596,2261.71417 C943.106469,2261.34661 945.656958,2260.95985 948.928063,2260.56386 L948.909007,2260.2903 L947.164385,2260.45065 L947.145579,2260.17734 C947.354192,2260.15839 947.524693,2260.09231 947.667111,2259.97935 L947.676388,2260.13021 C947.771417,2260.12074 947.904057,2260.05466 948.074808,2259.94144 C948.378199,2259.91327 948.605616,2259.94144 948.76684,2260.02648 C949.373622,2259.86614 949.866569,2259.77188 950.226877,2259.73397 L951.317329,2259.63024 C951.582858,2259.46067 951.70597,2259.30981 951.696693,2259.16842 L951.687165,2259.04573 C951.412107,2259.07391 951.099188,2259.05521 950.729603,2258.98912 C950.720075,2258.83826 950.795797,2258.73452 950.976077,2258.68739 L953.005034,2258.49887 L953.934263,2258.26298 C953.94354,2258.36671 953.99118,2258.40462 954.066902,2258.40462 C954.161681,2258.39514 954.294571,2258.32906 954.465071,2258.21585 C954.512461,2258.22532 954.569378,2258.22532 954.616767,2258.2348 C954.493655,2258.4894 954.351237,2258.85721 954.20907,2259.33798 L953.94354,2259.35694 C953.924735,2259.17764 953.877346,2259.01755 953.791845,2258.87591 L953.659205,2258.88539 C951.193967,2265.71222 950.094237,2268.89011 947.818806,2274.13274 C947.401581,2275.47182 947.050801,2276.21667 946.74741,2276.37701 C946.756938,2276.52788 946.851717,2276.60319 947.01294,2276.58448 C947.069606,2277.24455 946.917911,2277.89514 946.548326,2278.53625 C945.495735,2281.55381 944.794175,2283.20385 944.433867,2283.50558 L944.670813,2284.92944 C944.680341,2285.08031 944.604618,2285.16509 944.443395,2285.18404 L944.196921,2285.20299 C944.158809,2284.80676 944.016642,2284.61824 943.76064,2284.64666 L943.628001,2284.65614 C943.305554,2285.15587 943.05908,2285.7309 942.897857,2286.40044 L943.144331,2286.38149 C943.476305,2286.16479 943.628001,2285.91019 943.599417,2285.61769 L944.092615,2285.57056 L944.37695,2285.67429 C944.149532,2286.03263 944.045226,2286.31566 944.064031,2286.53235 L944.196921,2286.75878 L943.874475,2287.5131 L943.884003,2287.63579 C944.168337,2287.60736 944.481256,2287.70162 944.813231,2287.89962 C945.040649,2287.88091 945.287122,2287.77718 945.56218,2287.59788 C945.846515,2287.56971 946.908383,2287.56023 948.738507,2287.56023 L949.657956,2287.24902 C950.776992,2287.23955 950.957021,2287.26798 951.924111,2287.18319 L952.32228,2287.14529 L952.530892,2287.0039 L952.54042,2287.12659 C953.554899,2287.04155 953.621344,2287.10764 954.417682,2287.2019 L954.42721,2287.32458 L953.867818,2287.37171 L953.886623,2287.60736 C954.057374,2287.58866 954.20907,2287.54128 954.332432,2287.43779 C954.474599,2287.42832 954.55985,2287.50363 954.569378,2287.67344 C954.34196,2287.69239 954.085958,2287.74875 953.801373,2287.84326 L953.554899,2287.75823 C953.166258,2287.86196 953.251508,2287.89039 952.985978,2287.90909 L952.597337,2287.83378 C952.606865,2287.89962 952.568753,2287.94674 952.502559,2287.94674 C952.511836,2288.09786 952.597337,2288.17317 952.739505,2288.16369 L953.137674,2288.12604 L955.214021,2287.94674 L956.001082,2287.77718 C956.01061,2287.84326 956.038943,2287.88091 956.105388,2287.87144 L956.484501,2287.73005 L957.19584,2287.67344 C957.745704,2287.62631 957.736176,2287.58866 958.930684,2287.39989 C958.921406,2287.32458 958.94974,2287.29615 959.006657,2287.28693 L959.016185,2287.39041 C960.959892,2287.06051 961.083004,2287.04155 961.395922,2286.93782 L961.424256,2286.99442 C961.907926,2286.88146 961.632868,2286.90964 961.765758,2286.81538 C961.775286,2286.90016 961.803619,2286.93782 961.851009,2286.93782 L962.192261,2286.90964 L962.173455,2286.65504 L961.481173,2286.64556 L961.471895,2286.62686 C961.443311,2286.63609 961.424256,2286.63609 961.395922,2286.64556 L961.301144,2286.64556 L961.301144,2286.66452 C960.83653,2286.75878 960.827002,2286.69269 960.523611,2286.72112 L958.788516,2286.81538 L958.778988,2286.69269 L959.746078,2286.56078 L960.096858,2286.53235 L960.296193,2286.39096 L960.30547,2286.51365 C961.67098,2286.40044 962.154399,2286.73982 968.468941,2285.40099 C968.810193,2285.37256 968.781859,2285.08978 969,2284.50503 C968.884306,2284.5129 968.768842,2284.48671 968.668025,2284.42972 C968.146745,2284.62771 967.871687,2284.53345 966.866736,2284.69379 C966.781235,2284.70327 966.715041,2284.62771 966.686457,2284.47685 L966.676929,2284.37311 L967.644018,2284.40129 C967.824298,2284.38259 968.175078,2284.35416 968.696609,2284.06191 C968.696609,2284.14694 968.506802,2284.19407 968.620636,2284.18459 Z M922.443918,2284.96319 L922.00103,2285 C921.982348,2284.82498 922.217741,2284.16124 922.707458,2283.02754 L922.999644,2283 C923.009109,2283.26715 922.830012,2283.92163 922.443918,2284.96319 Z M923.010182,2282.4247 L923.000651,2282.30193 C922.991119,2282.15097 923.086185,2282.04716 923.294879,2282 L923.30416,2282.12252 C923.313691,2282.30193 923.218876,2282.40574 923.010182,2282.4247 Z M928.987282,2287 L929,2287.12252 L928.012718,2287.18865 L928,2287.06588 L928.987282,2287 Z M927.999705,2287 C928.009508,2287.15097 927.775509,2287.3209 927.268036,2287.49058 L926.331521,2287.4247 L926.029153,2287.4529 L926,2287.17941 L927.999705,2287 Z M933.623256,2259.4247 L933.013666,2259.46238 L933.000981,2259.31142 C932.987952,2259.16045 933.104522,2259.05664 933.363717,2259.00948 L933.584171,2259 L933.999021,2259.12252 C934.012049,2259.30193 933.89548,2259.40574 933.623256,2259.4247 Z M940.247577,2259.00948 L940.3898,2259 L940.408612,2259.27349 L940.000757,2259.31142 C939.991476,2259.16045 940.067228,2259.05664 940.247577,2259.00948 Z M938.679306,2260 L938.00948,2259.85433 L938,2259.61827 C938.877386,2259.4726 939.169764,2259.29087 939.707621,2259 C939.717101,2259.2 939.811401,2259.2726 939.98104,2259.23654 L940,2259.76346 L939.735811,2259.81827 C939.528252,2259.85433 939.349133,2259.8 939.198204,2259.63654 C939.037795,2259.83654 938.867906,2259.96346 938.679306,2260 Z M940.008664,2261.22657 L940,2261.10381 L940.991336,2261 L941,2261.12277 L940.008664,2261.22657 Z M941.017633,2260.19813 L941,2260.04716 L941.982367,2260 L942,2260.15097 L941.017633,2260.19813 Z M941.105587,2258.39626 L941,2258.40574 L941.09162,2258.11304 L941.992924,2258 L942,2258.15097 C941.767598,2258.17916 941.464804,2258.264 941.105587,2258.39626 Z M941.023363,2261.32325 L941,2261.04976 L941.651091,2261.0026 C941.872118,2260.98363 941.988318,2261.06847 942,2261.25737 L941.023363,2261.32325 Z M945,2257 L944.330135,2257.1889 L944.209348,2257.19813 C943.892989,2257.22657 943.483641,2257.21709 943,2257.16993 C943.865191,2257.11329 944.692989,2257.04716 945,2257 Z M943.98995,2260 L944,2260.12252 L943.01005,2260.20761 L943,2260.08484 L943.98995,2260 Z M945.690567,2260.86776 C945.680207,2260.64172 945.48446,2260.49052 945.082334,2260.41517 L944.061887,2260.94361 L943.278353,2261 C943.103053,2260.77345 943.01036,2260.62275 943,2260.50948 L943.907306,2260.60379 L945.948473,2260 L946.98964,2260.07535 L947,2260.37725 C946.48446,2260.47156 946.051527,2260.64172 945.690567,2260.86776 Z M954.737894,2258.67513 C954.844382,2258.68372 954.915609,2258.68372 954.942172,2258.68372 C955.253409,2258.39328 955.600141,2258.16251 956,2258 C955.680066,2259.35049 955.182181,2260.35041 954.497884,2261 L954,2260.70933 C954.417724,2259.69223 954.666667,2259.0171 954.737894,2258.67513 Z M953.736028,2261.01795 L954,2261 C953.641218,2261.64289 953.320858,2261.98205 953.056387,2262 L953,2261.32121 C953.169661,2261.32121 953.41517,2261.21398 953.736028,2261.01795 Z M952.327559,2263.76746 C952.560292,2262.73553 952.784363,2262.15287 952.991338,2262 L953,2262.12406 C952.879189,2263.07968 952.689537,2263.58604 952.439708,2263.62419 L952.48279,2264.22606 C952.275815,2264.551 952.180989,2264.79938 952.189651,2264.9904 L952.069068,2265 L952,2264.1687 C952.137907,2264.14975 952.250057,2264.01583 952.327559,2263.76746 Z M952.4362,2265 C952.445732,2265.14304 952.350917,2265.4762 952.161286,2265.99043 L952.028344,2266 L952,2265.63813 C952.180099,2265.21909 952.331853,2265.00957 952.4362,2265 Z M944.009532,2287.12252 L944,2287.01896 L944.24657,2287 L944.274914,2287.35858 C944.142223,2287.36806 944.047408,2287.29245 944.009532,2287.12252 Z M955.993758,2287.30193 C955.981275,2287.21709 955.931669,2287.17916 955.819974,2287.18865 L955.012484,2287.24529 L955,2287.12252 L955.074573,2287.12252 L956.987516,2287 L957,2287.12252 C956.440867,2287.14148 956.105453,2287.20761 955.993758,2287.30193 Z M955.036786,2287 C955.093726,2287.0282 955.065382,2287.05664 955.036786,2287.07536 C955.008442,2287.06613 954.970566,2287.03768 955.036786,2287 Z M954.887829,2285.38757 L954.010255,2285.45369 L954,2285.33092 L954.795808,2285.26505 L955.48988,2285.1046 C955.500135,2285.17996 955.540883,2285.2084 955.632635,2285.19892 C956.459207,2285.06692 956.37771,2285.02924 956.775479,2285.00079 C956.908249,2284.99131 956.990015,2285.06692 957,2285.21789 L954.887829,2285.38757 Z M957.961992,2285.22633 C957.425087,2285.17916 957.391364,2285.14148 957.011241,2285.16968 L957,2285.06588 L957.861119,2285 L957.87236,2285.10381 C957.783024,2285.11329 958.107237,2285.132 957.961992,2285.22633 Z M958.009532,2285.14148 L958,2285.03768 L958.398324,2285 L958.407856,2285.10381 L958.009532,2285.14148 Z M958.015289,2285.25655 L958,2285.15274 C958.109091,2285.14351 958.265289,2285.09635 958.468595,2285.00178 C958.796694,2284.98306 958.968595,2285.11506 959,2285.26603 L958.015289,2285.25655 Z M960.009532,2285.16045 L960,2285.03793 L960.483858,2285 L960.49339,2285.12277 L960.009532,2285.16045 Z M960.001926,2284.24529 C959.984019,2284.10381 960.090989,2284.01896 960.322836,2284 L960.625369,2284.20761 C960.607933,2284.14148 960.661183,2284.10381 960.768153,2284.09432 L961,2284.3209 L960.001926,2284.24529 Z M953.095066,2287.23606 L953.076003,2287 L953,2287.00948 L953.019063,2287.24529 L953.095066,2287.23606 Z M969.351167,2283.12252 C969.426919,2283.07536 969.464795,2283.0282 969.284696,2283 C969.199162,2283.09432 969.379512,2283.12252 969.189881,2283.132 L969.199162,2283.21684 C969.218225,2283.19813 969.265633,2283.16968 969.303509,2283.14148 L969.199162,2283.22633 L969.199162,2283.23581 L969,2283.49058 L969.398324,2283.34909 L969.445983,2283.34909 L969.426919,2283.11304 L969.351167,2283.12252 Z M970.131339,2284 L970,2284.00948 L970.032943,2284.24529 L971,2284.19813 C970.983528,2284.04716 970.34417,2284 970.131339,2284 Z M970,2284.01896 L970.009532,2284.00948 L970.009532,2284 C970.009532,2284 970,2284.00948 970,2284.01896 Z" id="Shape"></path>
        </g>
    </g>
</svg>