<?xml version="1.0" encoding="UTF-8"?>
<svg width="75px" height="60px" viewBox="0 0 75 60" version="1.1" xmlns="http://www.w3.org/2000/svg" xmlns:xlink="http://www.w3.org/1999/xlink">
    <!-- Generator: Sketch 51.1 (57501) - http://www.bohemiancoding.com/sketch -->
    <title>Shape</title>
    <desc>Created with Sketch.</desc>
    <defs></defs>
    <g id="Page-1" stroke="none" stroke-width="1" fill="none" fill-rule="evenodd">
        <g id="Desktop-HD-Copy-4" transform="translate(-495.000000, -2249.000000)" fill="#0F2F53" fill-rule="nonzero">
            <path d="M524.769736,2251.64235 C524.837998,2252.04928 524.633213,2252.38863 523.951181,2252.72769 C523.064365,2252.25289 521.153916,2251.98141 519.585069,2252.11715 C517.879405,2252.25289 516.446789,2252.79556 516.651574,2253.94848 C516.924327,2255.1017 518.561729,2255.78011 521.495225,2255.50863 C528.658309,2254.89809 528.590048,2250.0822 539.096198,2249.1326 C547.282622,2248.38661 551.853226,2250.89636 552.467289,2253.94848 C552.944828,2256.32249 550.96641,2258.62892 545.031158,2259.10372 C539.778229,2259.57852 536.70821,2258.15412 536.435456,2256.72971 C536.298933,2255.98343 536.70821,2254.89809 539.232428,2254.6269 C539.505475,2255.78011 540.938092,2257.0009 544.349126,2256.66184 C546.805083,2256.45823 548.851469,2255.5765 548.578715,2254.21997 C548.305962,2252.79556 545.713482,2251.98141 541.620123,2252.32076 C533.297176,2253.06675 531.250789,2257.61145 524.155674,2258.22199 C519.10753,2258.69679 515.014172,2256.86487 514.468371,2254.1521 C514.263879,2253.13462 514.263879,2250.76062 519.585069,2250.28581 C522.313779,2250.0822 524.496982,2250.55701 524.769736,2251.64235 Z M498.163785,2279.99527 C495.844351,2282.91195 494.821012,2286.30313 495.025504,2289.62704 C495.230289,2292.95064 496.867398,2295.66371 499.459878,2297.76653 C502.188588,2299.86905 505.122084,2300.47959 508.46515,2299.86905 C509.761243,2299.66573 511.19386,2298.98732 512.489953,2298.58039 C509.761243,2298.58039 507.44181,2297.69866 505.122084,2295.86732 C502.598159,2294.0357 500.892495,2291.45837 500.483218,2288.33808 C499.869155,2285.4214 500.483218,2282.70834 502.12062,2280.33433 C503.962514,2278.02819 506.350209,2276.73924 509.488196,2276.33231 C512.626477,2276.12899 515.355187,2276.94285 518.083898,2278.84205 C517.470128,2277.96032 516.583312,2277.34978 515.764757,2276.53592 C513.035754,2274.70429 510.102259,2273.82256 506.486439,2274.70429 C503.211928,2275.383 500.483218,2277.0783 498.163785,2279.99527 Z M534.730085,2264.32653 C525.929306,2264.32653 518.084191,2263.4448 512.421692,2262.22372 C506.350209,2260.73144 503.143666,2259.10372 503.143666,2257.0009 C503.143666,2256.11917 503.553237,2255.37289 504.781361,2254.49116 C500.960757,2255.98343 498.914077,2257.20451 498.914077,2259.10372 C499.118862,2261.20624 502.529897,2263.30906 509.488196,2264.93708 C516.037511,2266.5648 524.42872,2267.44653 534.5253,2267.44653 C544.826665,2267.44653 553.013089,2266.5648 559.562405,2264.93708 C566.520704,2263.30906 569.863477,2261.13867 569.863477,2259.10372 C569.863477,2257.61145 568.362598,2256.18704 565.633888,2255.1017 C566.24795,2255.50863 566.725489,2256.18704 566.725489,2256.93303 C566.725489,2259.03585 563.587208,2260.73144 557.242678,2262.15585 C551.375687,2263.4448 543.871587,2264.32653 534.730085,2264.32653 Z M559.835158,2270.15989 C553.285843,2271.65216 544.894927,2272.66964 534.798054,2272.66964 C524.496982,2272.66964 516.105773,2271.58429 509.556458,2270.15989 C503.689467,2268.66762 500.551772,2267.0396 499.459878,2265.34401 C500.551479,2272.66964 503.075698,2279.58805 506.41847,2285.69288 C508.942689,2289.49129 511.466614,2292.8149 513.990832,2296.40999 C515.082433,2298.51252 515.832726,2300.61534 516.310265,2302.71815 C517.947667,2305.02429 520.335655,2306.51656 523.268857,2307.33042 C526.884677,2308.61909 530.636727,2309.16176 534.457332,2308.95844 L534.866316,2308.95844 C538.686628,2309.16176 542.712017,2308.55122 546.395806,2307.33042 C549.124516,2306.44869 551.443949,2305.02429 553.149613,2302.71815 L553.354105,2302.71815 C553.763382,2300.61504 554.445706,2298.51252 555.469046,2296.40999 C557.993264,2292.8149 560.517482,2289.49129 563.041408,2285.69288 C566.38418,2279.65592 568.703907,2272.73751 570,2265.34401 C568.635645,2267.24321 565.497364,2268.87123 559.835158,2270.15989 Z" id="Shape"></path>
        </g>
    </g>
</svg>