<?xml version="1.0" encoding="UTF-8"?>
<svg width="60px" height="60px" viewBox="0 0 60 60" version="1.1" xmlns="http://www.w3.org/2000/svg" xmlns:xlink="http://www.w3.org/1999/xlink">
    <defs>
        <linearGradient x1="50%" y1="0%" x2="50%" y2="100%" id="linearGradient-1">
            <stop stop-color="#FFFFFF" offset="0%"></stop>
            <stop stop-color="#000000" offset="100%"></stop>
        </linearGradient>
    </defs>
    <g id="Page-1" stroke="none" stroke-width="1" fill="none" fill-rule="evenodd">
        <g id="Desktop-HD-Copy-7" transform="translate(-254.000000, -79.000000)">
            <g id="Group-14-Copy" transform="translate(254.000000, 79.000000)">
                <path d="M9,0 L51,0 C55.9705627,-9.99200722e-16 60,4.02943725 60,9 L60,51 C60,55.9705627 55.9705627,60 51,60 L9,60 C4.02943725,60 6.66133815e-16,55.9705627 0,51 L0,9 C-6.66133815e-16,4.02943725 4.02943725,6.66133815e-16 9,0 Z" id="Rectangle-27" fill="#309ACD"></path>
                <path d="M9,0 C4.02943725,0 0,4.02943725 0,9 L0,30 L10.322949,30 C11.3507567,30 12.2903505,30.5807009 12.75,31.5 C13.1978927,32.3957854 13.0223264,33.4776736 12.3141459,34.1858541 L11.3786797,35.1213203 C10.8160705,35.6839295 10.5,36.4469912 10.5,37.2426407 L10.5,37.5 C10.5,39.9852814 12.5147186,42 15,42 C17.4852814,42 19.5,39.9852814 19.5,37.5 L19.5,37.2426407 C19.5,36.4469912 19.1839295,35.6839295 18.6213203,35.1213203 L17.6858541,34.1858541 C16.9776736,33.4776736 16.8021073,32.3957854 17.25,31.5 C17.7096495,30.5807009 18.6492433,30 19.677051,30 L30,30 L30,19.677051 C30,18.6492433 29.4192991,17.7096495 28.5,17.25 C27.6042146,16.8021073 26.5223264,16.9776736 25.8141459,17.6858541 L24.8786797,18.6213203 C24.3160705,19.1839295 23.5530088,19.5 22.7573593,19.5 L22.5,19.5 C20.0147186,19.5 18,17.4852814 18,15 C18,12.5147186 20.0147186,10.5 22.5,10.5 L22.7573593,10.5 C23.5530088,10.5 24.3160705,10.8160705 24.8786797,11.3786797 L25.8141459,12.3141459 C26.5223264,13.0223264 27.6042146,13.1978927 28.5,12.75 C29.4192991,12.2903505 30,11.3507567 30,10.322949 L30,0 L9,0 Z" id="Combined-Shape" fill="#FFC24B"></path>
                <path d="M33,-6 C28.0294373,-6 24,-1.97056275 24,3 L24,24 L34.322949,24 C35.3507567,24 36.2903505,24.5807009 36.75,25.5 C37.1978927,26.3957854 37.0223264,27.4776736 36.3141459,28.1858541 L35.3786797,29.1213203 C34.8160705,29.6839295 34.5,30.4469912 34.5,31.2426407 L34.5,31.5 C34.5,33.9852814 36.5147186,36 39,36 C41.4852814,36 43.5,33.9852814 43.5,31.5 L43.5,31.2426407 C43.5,30.4469912 43.1839295,29.6839295 42.6213203,29.1213203 L41.6858541,28.1858541 C40.9776736,27.4776736 40.8021073,26.3957854 41.25,25.5 C41.7096495,24.5807009 42.6492433,24 43.677051,24 L54,24 L54,13.677051 C54,12.6492433 53.4192991,11.7096495 52.5,11.25 C51.6042146,10.8021073 50.5223264,10.9776736 49.8141459,11.6858541 L48.8786797,12.6213203 C48.3160705,13.1839295 47.5530088,13.5 46.7573593,13.5 L46.5,13.5 C44.0147186,13.5 42,11.4852814 42,9 C42,6.51471863 44.0147186,4.5 46.5,4.5 L46.7573593,4.5 C47.5530088,4.5 48.3160705,4.81607052 48.8786797,5.37867966 L49.8141459,6.31414588 C50.5223264,7.02232645 51.6042146,7.19789272 52.5,6.75 C53.4192991,6.29035045 54,5.35075665 54,4.32294902 L54,-6 L33,-6 Z" id="Combined-Shape-Copy-26" fill="#64387D" transform="translate(39.000000, 15.000000) rotate(-270.000000) translate(-39.000000, -15.000000) "></path>
                <path d="M39,18 C34.0294373,18 30,22.0294373 30,27 L30,48 L40.322949,48 C41.3507567,48 42.2903505,48.5807009 42.75,49.5 C43.1978927,50.3957854 43.0223264,51.4776736 42.3141459,52.1858541 L41.3786797,53.1213203 C40.8160705,53.6839295 40.5,54.4469912 40.5,55.2426407 L40.5,55.5 C40.5,57.9852814 42.5147186,60 45,60 C47.4852814,60 49.5,57.9852814 49.5,55.5 L49.5,55.2426407 C49.5,54.4469912 49.1839295,53.6839295 48.6213203,53.1213203 L47.6858541,52.1858541 C46.9776736,51.4776736 46.8021073,50.3957854 47.25,49.5 C47.7096495,48.5807009 48.6492433,48 49.677051,48 L60,48 L60,37.677051 C60,36.6492433 59.4192991,35.7096495 58.5,35.25 C57.6042146,34.8021073 56.5223264,34.9776736 55.8141459,35.6858541 L54.8786797,36.6213203 C54.3160705,37.1839295 53.5530088,37.5 52.7573593,37.5 L52.5,37.5 C50.0147186,37.5 48,35.4852814 48,33 C48,30.5147186 50.0147186,28.5 52.5,28.5 L52.7573593,28.5 C53.5530088,28.5 54.3160705,28.8160705 54.8786797,29.3786797 L55.8141459,30.3141459 C56.5223264,31.0223264 57.6042146,31.1978927 58.5,30.75 C59.4192991,30.2903505 60,29.3507567 60,28.322949 L60,18 L39,18 Z" id="Combined-Shape-Copy-27" fill="#80B644" transform="translate(45.000000, 39.000000) rotate(-180.000000) translate(-45.000000, -39.000000) "></path>
                <path d="M15,24 C10.0294373,24 6,28.0294373 6,33 L6,54 L16.322949,54 C17.3507567,54 18.2903505,54.5807009 18.75,55.5 C19.1978927,56.3957854 19.0223264,57.4776736 18.3141459,58.1858541 L17.3786797,59.1213203 C16.8160705,59.6839295 16.5,60.4469912 16.5,61.2426407 L16.5,61.5 C16.5,63.9852814 18.5147186,66 21,66 C23.4852814,66 25.5,63.9852814 25.5,61.5 L25.5,61.2426407 C25.5,60.4469912 25.1839295,59.6839295 24.6213203,59.1213203 L23.6858541,58.1858541 C22.9776736,57.4776736 22.8021073,56.3957854 23.25,55.5 C23.7096495,54.5807009 24.6492433,54 25.677051,54 L36,54 L36,43.677051 C36,42.6492433 35.4192991,41.7096495 34.5,41.25 C33.6042146,40.8021073 32.5223264,40.9776736 31.8141459,41.6858541 L30.8786797,42.6213203 C30.3160705,43.1839295 29.5530088,43.5 28.7573593,43.5 L28.5,43.5 C26.0147186,43.5 24,41.4852814 24,39 C24,36.5147186 26.0147186,34.5 28.5,34.5 L28.7573593,34.5 C29.5530088,34.5 30.3160705,34.8160705 30.8786797,35.3786797 L31.8141459,36.3141459 C32.5223264,37.0223264 33.6042146,37.1978927 34.5,36.75 C35.4192991,36.2903505 36,35.3507567 36,34.322949 L36,24 L15,24 Z" id="Combined-Shape-Copy-28" fill="#2293CA" transform="translate(21.000000, 45.000000) rotate(-90.000000) translate(-21.000000, -45.000000) "></path>
                <path d="M9,0 L51,0 C55.9705627,-9.99200722e-16 60,4.02943725 60,9 L60,51 C60,55.9705627 55.9705627,60 51,60 L9,60 C4.02943725,60 6.66133815e-16,55.9705627 0,51 L0,9 C-6.66133815e-16,4.02943725 4.02943725,6.66133815e-16 9,0 Z" id="Rectangle-27" fill-opacity="0.300000012" fill="url(#linearGradient-1)" style="mix-blend-mode: screen;"></path>
            </g>
        </g>
    </g>
</svg>
