<svg xmlns="http://www.w3.org/2000/svg" xmlns:xlink="http://www.w3.org/1999/xlink" viewBox="0 0 481.72 104.28" fill="#484748"><path d="M29.69,104.28C9.7,104.28,0,93.39,0,75V62.21H14.77V74c0,11.33,5.07,16.4,14.47,16.4S43,85.33,43,74V2.38H58.78V72.8c0,18.35-7.91,31.48-29.09,31.48"/><rect x="90.97" y="2.38" width="15.82" height="99.36"/><path d="M191.23,101.74l-2.54-8.35c-4,7.16-12.08,10.89-22.53,10.89-21.18,0-30-14.47-30-30.58V30.43C136.18,14.32,146,0,168.25,0,190.63,0,199,12.53,199,30.43v2.09H183.77V28.94c0-7.91-4.33-15.22-15.52-15.22S152,21.48,152,29.39v45.5c0,7.76,5.07,15.51,16.26,15.51s16.26-7.75,16.26-15.51V63.11H168.7V49.82h30.73v51.92Z"/><path d="M253.6,104.28c-18.8,0-31.33-11.94-31.33-27.9V71.61h15.67v1.64c0,11.93,5.51,17.61,16.11,17.61,10,0,15.22-6,15.22-14.33s-4-12.68-18.95-19.54c-13.28-6.12-26.7-14-26.7-29.84C223.62,12.23,234.5,0,253.45,0s30.88,11.78,30.88,27.89v3.89H269.12V30.14c0-9.11-4.63-16.86-16.12-16.86-9.1,0-13.57,5.36-13.57,12.38,0,7.91,4.17,11.48,21.18,19.69,17.46,8.36,24.62,15.81,24.62,29.39,0,16.71-12.68,29.54-31.63,29.54"/><path d="M334.42,23.87,325,63h19.09Zm19.39,77.87-6.42-25.66H321.88l-6.11,25.66H300.25L326.51,2.38h16.71l26.55,99.36Z"/><polygon points="465.91 2.38 453.38 76.83 438.16 2.38 423.39 2.38 407.13 76.83 394.75 2.38 378.49 2.38 399.07 101.74 414.59 101.74 430.4 31.32 445.32 101.74 460.83 101.74 481.72 2.38 465.91 2.38"/></svg>
