<?xml version="1.0" encoding="UTF-8"?>
<svg width="30px" height="30px" viewBox="0 0 30 30" version="1.1" xmlns="http://www.w3.org/2000/svg" xmlns:xlink="http://www.w3.org/1999/xlink">
    <!-- Generator: Sketch 51.3 (57544) - http://www.bohemiancoding.com/sketch -->
    <title>Group 14</title>
    <desc>Created with Sketch.</desc>
    <defs>
        <linearGradient x1="50%" y1="0%" x2="50%" y2="100%" id="linearGradient-1">
            <stop stop-color="#FFFFFF" offset="0%"></stop>
            <stop stop-color="#000000" offset="100%"></stop>
        </linearGradient>
    </defs>
    <g id="Page-1" stroke="none" stroke-width="1" fill="none" fill-rule="evenodd">
        <g id="Desktop-HD" transform="translate(-70.000000, -19.000000)">
            <g id="Group-14" transform="translate(70.000000, 19.000000)">
                <path d="M4.5,0 L25.5,0 C27.9852814,-4.99600361e-16 30,2.01471863 30,4.5 L30,25.5 C30,27.9852814 27.9852814,30 25.5,30 L4.5,30 C2.01471863,30 3.33066907e-16,27.9852814 0,25.5 L0,4.5 C-3.33066907e-16,2.01471863 2.01471863,3.33066907e-16 4.5,0 Z" id="Rectangle-27" fill="#A2BCDA"></path>
                <path d="M4.5,0 C2.01471863,0 0,2.01471863 0,4.5 L0,15 L5.16147451,15 C5.67537833,15 6.14517523,15.2903505 6.375,15.75 C6.59894636,16.1978927 6.51116322,16.7388368 6.15707294,17.0929271 L5.68933983,17.5606602 C5.40803526,17.8419647 5.25,18.2234956 5.25,18.6213203 L5.25,18.75 C5.25,19.9926407 6.25735931,21 7.5,21 C8.74264069,21 9.75,19.9926407 9.75,18.75 L9.75,18.6213203 C9.75,18.2234956 9.59196474,17.8419647 9.31066017,17.5606602 L8.84292706,17.0929271 C8.48883678,16.7388368 8.40105364,16.1978927 8.625,15.75 C8.85482477,15.2903505 9.32462167,15 9.83852549,15 L15,15 L15,9.83852549 C15,9.32462167 14.7096495,8.85482477 14.25,8.625 C13.8021073,8.40105364 13.2611632,8.48883678 12.9070729,8.84292706 L12.4393398,9.31066017 C12.1580353,9.59196474 11.7765044,9.75 11.3786797,9.75 L11.25,9.75 C10.0073593,9.75 9,8.74264069 9,7.5 C9,6.25735931 10.0073593,5.25 11.25,5.25 L11.3786797,5.25 C11.7765044,5.25 12.1580353,5.40803526 12.4393398,5.68933983 L12.9070729,6.15707294 C13.2611632,6.51116322 13.8021073,6.59894636 14.25,6.375 C14.7096495,6.14517523 15,5.67537833 15,5.16147451 L15,0 L4.5,0 Z" id="Combined-Shape" fill="#0F2F53"></path>
                <path d="M19.5,9 C17.0147186,9 15,11.0147186 15,13.5 L15,24 L20.1614745,24 C20.6753783,24 21.1451752,24.2903505 21.375,24.75 C21.5989464,25.1978927 21.5111632,25.7388368 21.1570729,26.0929271 L20.6893398,26.5606602 C20.4080353,26.8419647 20.25,27.2234956 20.25,27.6213203 L20.25,27.75 C20.25,28.9926407 21.2573593,30 22.5,30 C23.7426407,30 24.75,28.9926407 24.75,27.75 L24.75,27.6213203 C24.75,27.2234956 24.5919647,26.8419647 24.3106602,26.5606602 L23.8429271,26.0929271 C23.4888368,25.7388368 23.4010536,25.1978927 23.625,24.75 C23.8548248,24.2903505 24.3246217,24 24.8385255,24 L30,24 L30,18.8385255 C30,18.3246217 29.7096495,17.8548248 29.25,17.625 C28.8021073,17.4010536 28.2611632,17.4888368 27.9070729,17.8429271 L27.4393398,18.3106602 C27.1580353,18.5919647 26.7765044,18.75 26.3786797,18.75 L26.25,18.75 C25.0073593,18.75 24,17.7426407 24,16.5 C24,15.2573593 25.0073593,14.25 26.25,14.25 L26.3786797,14.25 C26.7765044,14.25 27.1580353,14.4080353 27.4393398,14.6893398 L27.9070729,15.1570729 C28.2611632,15.5111632 28.8021073,15.5989464 29.25,15.375 C29.7096495,15.1451752 30,14.6753783 30,14.1614745 L30,9 L19.5,9 Z" id="Combined-Shape-Copy-27" fill="#0F2F53" transform="translate(22.500000, 19.500000) rotate(-180.000000) translate(-22.500000, -19.500000) "></path>
                <path d="M4.5,0 L25.5,0 C27.9852814,-4.99600361e-16 30,2.01471863 30,4.5 L30,25.5 C30,27.9852814 27.9852814,30 25.5,30 L4.5,30 C2.01471863,30 3.33066907e-16,27.9852814 0,25.5 L0,4.5 C-3.33066907e-16,2.01471863 2.01471863,3.33066907e-16 4.5,0 Z" id="Rectangle-27" fill-opacity="0.300000012" fill="url(#linearGradient-1)" style="mix-blend-mode: screen;"></path>
            </g>
        </g>
    </g>
</svg>